<?xml version="1.0" standalone="no"?>
<!DOCTYPE svg PUBLIC "-//W3C//DTD SVG 20010904//EN"
 "http://www.w3.org/TR/2001/REC-SVG-20010904/DTD/svg10.dtd">
<svg version="1.0" xmlns="http://www.w3.org/2000/svg"
 width="629.000000pt" height="629.000000pt" viewBox="0 0 629.000000 629.000000"
 preserveAspectRatio="xMidYMid meet">
<metadata>
Created by potrace 1.11, written by Peter Selinger 2001-2013
</metadata>
<g transform="translate(0.000000,629.000000) scale(0.100000,-0.100000)"
fill="#000000" stroke="none">
<path d="M2525 6256 c-47 -21 -130 -110 -173 -184 -38 -64 -95 -202 -106 -253
-3 -13 -10 -42 -15 -64 -5 -22 -13 -62 -16 -90 -4 -27 -8 -61 -11 -75 -2 -14
-6 -59 -9 -100 -4 -41 -9 -78 -13 -81 -4 -3 -41 -12 -82 -19 -41 -8 -79 -15
-85 -16 -5 -1 -28 -5 -50 -9 -22 -4 -70 -12 -106 -19 -65 -12 -308 -13 -359
-2 -14 4 -85 9 -158 12 -162 6 -223 -7 -278 -62 -80 -81 -102 -211 -52 -309
27 -53 99 -126 158 -162 40 -24 127 -53 185 -60 22 -3 41 -6 42 -7 2 -2 -22
-36 -53 -77 -140 -187 -270 -452 -300 -614 -4 -22 -9 -47 -11 -55 -13 -59 -17
-112 -17 -226 1 -101 5 -139 18 -164 16 -34 15 -48 -9 -105 -30 -72 -143 -376
-148 -400 -2 -5 -5 -14 -8 -20 -7 -12 -47 -140 -175 -560 -23 -76 -20 -65 -39
-165 -28 -145 -5 -364 50 -476 28 -57 111 -147 179 -192 50 -34 165 -82 196
-82 11 0 33 -11 48 -25 39 -36 102 -58 156 -54 53 5 57 -1 62 -73 3 -59 22
-96 95 -185 52 -63 57 -72 40 -78 -65 -20 -304 -338 -447 -592 -22 -41 -35
-53 -54 -54 -69 -2 -110 -31 -146 -105 -52 -107 -15 -218 101 -302 6 -4 24
-14 40 -22 50 -24 53 -28 45 -63 -4 -18 -11 -40 -15 -49 -7 -17 82 -18 1779
-18 l1786 0 62 53 c91 77 122 138 89 173 -35 38 -243 229 -256 237 -10 5 6 27
59 80 103 102 159 222 191 407 13 77 26 123 45 160 43 85 125 304 161 430 7
25 14 50 16 55 51 160 65 371 27 422 -37 51 -93 68 -237 72 -16 1 -12 9 20 48
54 67 82 113 160 261 73 143 130 340 150 523 15 134 7 648 -11 745 -2 10 -7
39 -11 64 -11 65 -11 67 -33 160 -18 74 -44 155 -67 211 -6 15 -1 15 47 2 80
-22 316 -27 389 -9 72 19 100 36 162 101 72 75 102 144 102 230 -1 117 -60
198 -199 274 -63 34 -102 47 -196 67 -14 2 -47 9 -75 15 -27 6 -61 12 -75 14
-78 11 -299 84 -391 130 -100 49 -221 124 -233 144 -5 8 32 62 55 81 16 14
172 257 212 331 40 73 90 202 103 264 5 20 16 95 16 105 1 41 -7 65 -30 91
-24 27 -33 30 -59 25 -30 -7 -93 -67 -135 -127 -67 -97 -125 -173 -134 -176
-6 -2 -16 15 -23 37 -17 57 -61 127 -87 138 -16 8 -29 6 -52 -8 -35 -22 -39
-28 -46 -66 -3 -16 -10 -43 -14 -59 -10 -31 -8 -177 2 -231 5 -28 -1 -38 -59
-97 -89 -91 -88 -91 -165 -55 -75 35 -198 78 -320 113 -83 23 -97 26 -170 39
-59 10 -84 15 -105 19 -12 3 -48 8 -80 12 -33 3 -73 8 -90 10 -62 8 -304 19
-415 19 -119 -1 -226 -9 -295 -25 -79 -17 -82 -15 -78 42 4 73 21 129 41 136
28 11 126 89 162 129 56 64 76 138 45 164 -21 17 -68 15 -107 -4 -43 -22 -49
-20 -37 12 6 15 13 34 15 42 2 8 14 52 26 98 21 76 22 85 8 110 -13 21 -24 27
-55 29 -22 2 -53 -3 -70 -11z"/>
</g>
</svg>
